<mxfile host="app.diagrams.net" modified="2021-10-07T17:07:30.038Z" agent="5.0 (Windows NT 10.0; Win64; x64) AppleWebKit/537.36 (KHTML, like Gecko) Chrome/94.0.4606.71 Safari/537.36" etag="sAHbImhxl4xTj27Irg6u" version="15.4.3" type="github">
  <diagram id="SPCeOT56AMdzjo2Sd9za" name="Blog_applicationDB_diagram">
    <mxGraphModel dx="2391" dy="2041" grid="1" gridSize="10" guides="1" tooltips="1" connect="1" arrows="1" fold="1" page="1" pageScale="1" pageWidth="827" pageHeight="1169" math="0" shadow="0">
      <root>
        <mxCell id="0" />
        <mxCell id="1" parent="0" />
        <mxCell id="ow447sVKTbxCxxCB1ptR-23" value="" style="group" parent="1" vertex="1" connectable="0">
          <mxGeometry x="-390" y="-100" width="330" height="240" as="geometry" />
        </mxCell>
        <mxCell id="ow447sVKTbxCxxCB1ptR-15" value="profile_picture" style="shape=partialRectangle;connectable=0;fillColor=none;top=0;left=0;bottom=0;right=0;editable=1;overflow=hidden;" parent="ow447sVKTbxCxxCB1ptR-23" vertex="1">
          <mxGeometry x="-21" y="180" width="130" height="30" as="geometry">
            <mxRectangle width="30" height="30" as="alternateBounds" />
          </mxGeometry>
        </mxCell>
        <mxCell id="ow447sVKTbxCxxCB1ptR-21" value="" style="shape=partialRectangle;connectable=0;fillColor=none;top=0;left=0;bottom=0;right=0;align=left;spacingLeft=6;overflow=hidden;" parent="ow447sVKTbxCxxCB1ptR-23" vertex="1">
          <mxGeometry x="30" y="210" width="240" height="30" as="geometry">
            <mxRectangle width="240" height="30" as="alternateBounds" />
          </mxGeometry>
        </mxCell>
        <mxCell id="NAudPtJrV0JuPCTQ65x1-151" value="" style="group" parent="ow447sVKTbxCxxCB1ptR-23" vertex="1" connectable="0">
          <mxGeometry width="330" height="240" as="geometry" />
        </mxCell>
        <mxCell id="ow447sVKTbxCxxCB1ptR-2" value="user_data" style="shape=table;startSize=30;container=1;collapsible=1;childLayout=tableLayout;fixedRows=1;rowLines=0;fontStyle=1;align=center;resizeLast=1;fillColor=#6d8764;strokeColor=#3A5431;fontColor=#ffffff;" parent="NAudPtJrV0JuPCTQ65x1-151" vertex="1">
          <mxGeometry width="300" height="240" as="geometry" />
        </mxCell>
        <mxCell id="ow447sVKTbxCxxCB1ptR-3" value="" style="shape=partialRectangle;collapsible=0;dropTarget=0;pointerEvents=0;fillColor=none;top=0;left=0;bottom=1;right=0;points=[[0,0.5],[1,0.5]];portConstraint=eastwest;" parent="ow447sVKTbxCxxCB1ptR-2" vertex="1">
          <mxGeometry y="30" width="300" height="30" as="geometry" />
        </mxCell>
        <mxCell id="ow447sVKTbxCxxCB1ptR-4" value="id" style="shape=partialRectangle;connectable=0;fillColor=none;top=0;left=0;bottom=0;right=0;fontStyle=1;overflow=hidden;" parent="ow447sVKTbxCxxCB1ptR-3" vertex="1">
          <mxGeometry width="93" height="30" as="geometry">
            <mxRectangle width="93" height="30" as="alternateBounds" />
          </mxGeometry>
        </mxCell>
        <mxCell id="ow447sVKTbxCxxCB1ptR-5" value="int primary key auto_increment" style="shape=partialRectangle;connectable=0;fillColor=none;top=0;left=0;bottom=0;right=0;align=left;spacingLeft=6;fontStyle=5;overflow=hidden;" parent="ow447sVKTbxCxxCB1ptR-3" vertex="1">
          <mxGeometry x="93" width="207" height="30" as="geometry">
            <mxRectangle width="207" height="30" as="alternateBounds" />
          </mxGeometry>
        </mxCell>
        <mxCell id="ow447sVKTbxCxxCB1ptR-6" value="" style="shape=partialRectangle;collapsible=0;dropTarget=0;pointerEvents=0;fillColor=none;top=0;left=0;bottom=0;right=0;points=[[0,0.5],[1,0.5]];portConstraint=eastwest;" parent="ow447sVKTbxCxxCB1ptR-2" vertex="1">
          <mxGeometry y="60" width="300" height="30" as="geometry" />
        </mxCell>
        <mxCell id="ow447sVKTbxCxxCB1ptR-7" value="user_name" style="shape=partialRectangle;connectable=0;fillColor=none;top=0;left=0;bottom=0;right=0;editable=1;overflow=hidden;align=left;" parent="ow447sVKTbxCxxCB1ptR-6" vertex="1">
          <mxGeometry width="93" height="30" as="geometry">
            <mxRectangle width="93" height="30" as="alternateBounds" />
          </mxGeometry>
        </mxCell>
        <mxCell id="ow447sVKTbxCxxCB1ptR-8" value="varchar(60) not null" style="shape=partialRectangle;connectable=0;fillColor=none;top=0;left=0;bottom=0;right=0;align=left;spacingLeft=6;overflow=hidden;" parent="ow447sVKTbxCxxCB1ptR-6" vertex="1">
          <mxGeometry x="93" width="207" height="30" as="geometry">
            <mxRectangle width="207" height="30" as="alternateBounds" />
          </mxGeometry>
        </mxCell>
        <mxCell id="ow447sVKTbxCxxCB1ptR-9" value="" style="shape=partialRectangle;collapsible=0;dropTarget=0;pointerEvents=0;fillColor=none;top=0;left=0;bottom=0;right=0;points=[[0,0.5],[1,0.5]];portConstraint=eastwest;" parent="ow447sVKTbxCxxCB1ptR-2" vertex="1">
          <mxGeometry y="90" width="300" height="30" as="geometry" />
        </mxCell>
        <mxCell id="ow447sVKTbxCxxCB1ptR-10" value="password" style="shape=partialRectangle;connectable=0;fillColor=none;top=0;left=0;bottom=0;right=0;editable=1;overflow=hidden;align=left;" parent="ow447sVKTbxCxxCB1ptR-9" vertex="1">
          <mxGeometry width="93" height="30" as="geometry">
            <mxRectangle width="93" height="30" as="alternateBounds" />
          </mxGeometry>
        </mxCell>
        <mxCell id="ow447sVKTbxCxxCB1ptR-11" value="varchar(60) not null" style="shape=partialRectangle;connectable=0;fillColor=none;top=0;left=0;bottom=0;right=0;align=left;spacingLeft=6;overflow=hidden;" parent="ow447sVKTbxCxxCB1ptR-9" vertex="1">
          <mxGeometry x="93" width="207" height="30" as="geometry">
            <mxRectangle width="207" height="30" as="alternateBounds" />
          </mxGeometry>
        </mxCell>
        <mxCell id="ow447sVKTbxCxxCB1ptR-12" value="" style="shape=partialRectangle;collapsible=0;dropTarget=0;pointerEvents=0;fillColor=none;top=0;left=0;bottom=0;right=0;points=[[0,0.5],[1,0.5]];portConstraint=eastwest;" parent="ow447sVKTbxCxxCB1ptR-2" vertex="1">
          <mxGeometry y="120" width="300" height="30" as="geometry" />
        </mxCell>
        <mxCell id="ow447sVKTbxCxxCB1ptR-13" value="email" style="shape=partialRectangle;connectable=0;fillColor=none;top=0;left=0;bottom=0;right=0;editable=1;overflow=hidden;align=left;" parent="ow447sVKTbxCxxCB1ptR-12" vertex="1">
          <mxGeometry width="93" height="30" as="geometry">
            <mxRectangle width="93" height="30" as="alternateBounds" />
          </mxGeometry>
        </mxCell>
        <mxCell id="ow447sVKTbxCxxCB1ptR-14" value="varchar(100) not null" style="shape=partialRectangle;connectable=0;fillColor=none;top=0;left=0;bottom=0;right=0;align=left;spacingLeft=6;overflow=hidden;" parent="ow447sVKTbxCxxCB1ptR-12" vertex="1">
          <mxGeometry x="93" width="207" height="30" as="geometry">
            <mxRectangle width="207" height="30" as="alternateBounds" />
          </mxGeometry>
        </mxCell>
        <mxCell id="ow447sVKTbxCxxCB1ptR-17" value="" style="shape=partialRectangle;connectable=0;fillColor=none;top=0;left=0;bottom=0;right=0;editable=1;overflow=hidden;" parent="NAudPtJrV0JuPCTQ65x1-151" vertex="1">
          <mxGeometry y="210" width="30" height="30" as="geometry">
            <mxRectangle width="30" height="30" as="alternateBounds" />
          </mxGeometry>
        </mxCell>
        <mxCell id="ow447sVKTbxCxxCB1ptR-20" value="enum (admin, user, moderator)" style="shape=partialRectangle;connectable=0;fillColor=none;top=0;left=0;bottom=0;right=0;align=left;spacingLeft=6;overflow=hidden;" parent="NAudPtJrV0JuPCTQ65x1-151" vertex="1">
          <mxGeometry x="90" y="150" width="240" height="30" as="geometry">
            <mxRectangle width="240" height="30" as="alternateBounds" />
          </mxGeometry>
        </mxCell>
        <mxCell id="ow447sVKTbxCxxCB1ptR-16" value="user_state" style="shape=partialRectangle;connectable=0;fillColor=none;top=0;left=0;bottom=0;right=0;editable=1;overflow=hidden;align=left;" parent="NAudPtJrV0JuPCTQ65x1-151" vertex="1">
          <mxGeometry y="150" width="70" height="30" as="geometry">
            <mxRectangle width="30" height="30" as="alternateBounds" />
          </mxGeometry>
        </mxCell>
        <mxCell id="ow447sVKTbxCxxCB1ptR-19" value="longblob" style="shape=partialRectangle;connectable=0;fillColor=none;top=0;left=0;bottom=0;right=0;align=left;spacingLeft=6;overflow=hidden;" parent="NAudPtJrV0JuPCTQ65x1-151" vertex="1">
          <mxGeometry x="90" y="180" width="240" height="30" as="geometry">
            <mxRectangle width="240" height="30" as="alternateBounds" />
          </mxGeometry>
        </mxCell>
        <mxCell id="ow447sVKTbxCxxCB1ptR-24" value="" style="group;align=left;" parent="1" vertex="1" connectable="0">
          <mxGeometry x="330" y="-90" width="410" height="220" as="geometry" />
        </mxCell>
        <mxCell id="NAudPtJrV0JuPCTQ65x1-162" value="" style="group" parent="ow447sVKTbxCxxCB1ptR-24" vertex="1" connectable="0">
          <mxGeometry y="10" width="410" height="180" as="geometry" />
        </mxCell>
        <mxCell id="ow447sVKTbxCxxCB1ptR-25" value="template" style="shape=table;startSize=30;container=1;collapsible=1;childLayout=tableLayout;fixedRows=1;rowLines=0;fontStyle=1;align=center;resizeLast=1;fillColor=#647687;strokeColor=#314354;fontColor=#ffffff;" parent="NAudPtJrV0JuPCTQ65x1-162" vertex="1">
          <mxGeometry width="410" height="180" as="geometry" />
        </mxCell>
        <mxCell id="ow447sVKTbxCxxCB1ptR-26" value="" style="shape=partialRectangle;collapsible=0;dropTarget=0;pointerEvents=0;fillColor=none;top=0;left=0;bottom=1;right=0;points=[[0,0.5],[1,0.5]];portConstraint=eastwest;" parent="ow447sVKTbxCxxCB1ptR-25" vertex="1">
          <mxGeometry y="30" width="410" height="30" as="geometry" />
        </mxCell>
        <mxCell id="ow447sVKTbxCxxCB1ptR-27" value="name" style="shape=partialRectangle;connectable=0;fillColor=none;top=0;left=0;bottom=0;right=0;fontStyle=1;overflow=hidden;" parent="ow447sVKTbxCxxCB1ptR-26" vertex="1">
          <mxGeometry width="130" height="30" as="geometry">
            <mxRectangle width="130" height="30" as="alternateBounds" />
          </mxGeometry>
        </mxCell>
        <mxCell id="ow447sVKTbxCxxCB1ptR-28" value="varchar(60) not null" style="shape=partialRectangle;connectable=0;fillColor=none;top=0;left=0;bottom=0;right=0;align=left;spacingLeft=6;fontStyle=5;overflow=hidden;" parent="ow447sVKTbxCxxCB1ptR-26" vertex="1">
          <mxGeometry x="130" width="280" height="30" as="geometry">
            <mxRectangle width="280" height="30" as="alternateBounds" />
          </mxGeometry>
        </mxCell>
        <mxCell id="ow447sVKTbxCxxCB1ptR-32" value="" style="shape=partialRectangle;collapsible=0;dropTarget=0;pointerEvents=0;fillColor=none;top=0;left=0;bottom=0;right=0;points=[[0,0.5],[1,0.5]];portConstraint=eastwest;" parent="ow447sVKTbxCxxCB1ptR-25" vertex="1">
          <mxGeometry y="60" width="410" height="30" as="geometry" />
        </mxCell>
        <mxCell id="ow447sVKTbxCxxCB1ptR-33" value="category" style="shape=partialRectangle;connectable=0;fillColor=none;top=0;left=0;bottom=0;right=0;editable=1;overflow=hidden;align=left;" parent="ow447sVKTbxCxxCB1ptR-32" vertex="1">
          <mxGeometry width="130" height="30" as="geometry">
            <mxRectangle width="130" height="30" as="alternateBounds" />
          </mxGeometry>
        </mxCell>
        <mxCell id="ow447sVKTbxCxxCB1ptR-34" value="varchar(60) not null def &#39;clean&#39;" style="shape=partialRectangle;connectable=0;fillColor=none;top=0;left=0;bottom=0;right=0;align=left;spacingLeft=6;overflow=hidden;" parent="ow447sVKTbxCxxCB1ptR-32" vertex="1">
          <mxGeometry x="130" width="280" height="30" as="geometry">
            <mxRectangle width="280" height="30" as="alternateBounds" />
          </mxGeometry>
        </mxCell>
        <mxCell id="ow447sVKTbxCxxCB1ptR-35" value="" style="shape=partialRectangle;collapsible=0;dropTarget=0;pointerEvents=0;fillColor=none;top=0;left=0;bottom=0;right=0;points=[[0,0.5],[1,0.5]];portConstraint=eastwest;" parent="ow447sVKTbxCxxCB1ptR-25" vertex="1">
          <mxGeometry y="90" width="410" height="30" as="geometry" />
        </mxCell>
        <mxCell id="ow447sVKTbxCxxCB1ptR-36" value="main_coloróur" style="shape=partialRectangle;connectable=0;fillColor=none;top=0;left=0;bottom=0;right=0;editable=1;overflow=hidden;align=left;" parent="ow447sVKTbxCxxCB1ptR-35" vertex="1">
          <mxGeometry width="130" height="30" as="geometry">
            <mxRectangle width="130" height="30" as="alternateBounds" />
          </mxGeometry>
        </mxCell>
        <mxCell id="ow447sVKTbxCxxCB1ptR-37" value="varchar(30) not null def &#39;black&#39;" style="shape=partialRectangle;connectable=0;fillColor=none;top=0;left=0;bottom=0;right=0;align=left;spacingLeft=6;overflow=hidden;" parent="ow447sVKTbxCxxCB1ptR-35" vertex="1">
          <mxGeometry x="130" width="280" height="30" as="geometry">
            <mxRectangle width="280" height="30" as="alternateBounds" />
          </mxGeometry>
        </mxCell>
        <mxCell id="ow447sVKTbxCxxCB1ptR-38" value="backgorund_colour" style="shape=partialRectangle;connectable=0;fillColor=none;top=0;left=0;bottom=0;right=0;editable=1;overflow=hidden;align=left;" parent="NAudPtJrV0JuPCTQ65x1-162" vertex="1">
          <mxGeometry y="134.69" width="130" height="13.11" as="geometry">
            <mxRectangle width="30" height="30" as="alternateBounds" />
          </mxGeometry>
        </mxCell>
        <mxCell id="ow447sVKTbxCxxCB1ptR-41" value="varchar(30) not null def &#39;white&#39;" style="shape=partialRectangle;connectable=0;fillColor=none;top=0;left=0;bottom=0;right=0;align=left;spacingLeft=6;overflow=hidden;" parent="NAudPtJrV0JuPCTQ65x1-162" vertex="1">
          <mxGeometry x="130" y="129.99526315789473" width="240" height="22.5" as="geometry">
            <mxRectangle width="240" height="30" as="alternateBounds" />
          </mxGeometry>
        </mxCell>
        <mxCell id="ow447sVKTbxCxxCB1ptR-44" value="blog_text" style="shape=table;startSize=30;container=1;collapsible=1;childLayout=tableLayout;fixedRows=1;rowLines=0;fontStyle=0;align=center;resizeLast=1;fillColor=#a0522d;strokeColor=#6D1F00;fontColor=#ffffff;" parent="1" vertex="1">
          <mxGeometry x="-413" y="860" width="300" height="170" as="geometry" />
        </mxCell>
        <mxCell id="ow447sVKTbxCxxCB1ptR-45" value="" style="shape=partialRectangle;collapsible=0;dropTarget=0;pointerEvents=0;fillColor=none;top=0;left=0;bottom=1;right=0;points=[[0,0.5],[1,0.5]];portConstraint=eastwest;" parent="ow447sVKTbxCxxCB1ptR-44" vertex="1">
          <mxGeometry y="30" width="300" height="30" as="geometry" />
        </mxCell>
        <mxCell id="ow447sVKTbxCxxCB1ptR-46" value="id" style="shape=partialRectangle;connectable=0;fillColor=none;top=0;left=0;bottom=0;right=0;fontStyle=1;overflow=hidden;" parent="ow447sVKTbxCxxCB1ptR-45" vertex="1">
          <mxGeometry width="90" height="30" as="geometry">
            <mxRectangle width="90" height="30" as="alternateBounds" />
          </mxGeometry>
        </mxCell>
        <mxCell id="ow447sVKTbxCxxCB1ptR-47" value="int primary key auto_increment" style="shape=partialRectangle;connectable=0;fillColor=none;top=0;left=0;bottom=0;right=0;align=left;spacingLeft=6;fontStyle=5;overflow=hidden;" parent="ow447sVKTbxCxxCB1ptR-45" vertex="1">
          <mxGeometry x="90" width="210" height="30" as="geometry">
            <mxRectangle width="210" height="30" as="alternateBounds" />
          </mxGeometry>
        </mxCell>
        <mxCell id="ow447sVKTbxCxxCB1ptR-51" value="" style="shape=partialRectangle;collapsible=0;dropTarget=0;pointerEvents=0;fillColor=none;top=0;left=0;bottom=0;right=0;points=[[0,0.5],[1,0.5]];portConstraint=eastwest;" parent="ow447sVKTbxCxxCB1ptR-44" vertex="1">
          <mxGeometry y="60" width="300" height="40" as="geometry" />
        </mxCell>
        <mxCell id="ow447sVKTbxCxxCB1ptR-52" value="blog_name" style="shape=partialRectangle;connectable=0;fillColor=none;top=0;left=0;bottom=0;right=0;editable=1;overflow=hidden;align=left;" parent="ow447sVKTbxCxxCB1ptR-51" vertex="1">
          <mxGeometry width="90" height="40" as="geometry">
            <mxRectangle width="90" height="40" as="alternateBounds" />
          </mxGeometry>
        </mxCell>
        <mxCell id="ow447sVKTbxCxxCB1ptR-53" value="varchar(50)" style="shape=partialRectangle;connectable=0;fillColor=none;top=0;left=0;bottom=0;right=0;align=left;spacingLeft=6;overflow=hidden;" parent="ow447sVKTbxCxxCB1ptR-51" vertex="1">
          <mxGeometry x="90" width="210" height="40" as="geometry">
            <mxRectangle width="210" height="40" as="alternateBounds" />
          </mxGeometry>
        </mxCell>
        <mxCell id="ow447sVKTbxCxxCB1ptR-48" value="" style="shape=partialRectangle;collapsible=0;dropTarget=0;pointerEvents=0;fillColor=none;top=0;left=0;bottom=0;right=0;points=[[0,0.5],[1,0.5]];portConstraint=eastwest;" parent="ow447sVKTbxCxxCB1ptR-44" vertex="1">
          <mxGeometry y="100" width="300" height="30" as="geometry" />
        </mxCell>
        <mxCell id="ow447sVKTbxCxxCB1ptR-49" value="blog_content" style="shape=partialRectangle;connectable=0;fillColor=none;top=0;left=0;bottom=0;right=0;editable=1;overflow=hidden;align=left;" parent="ow447sVKTbxCxxCB1ptR-48" vertex="1">
          <mxGeometry width="90" height="30" as="geometry">
            <mxRectangle width="90" height="30" as="alternateBounds" />
          </mxGeometry>
        </mxCell>
        <mxCell id="ow447sVKTbxCxxCB1ptR-50" value="longext" style="shape=partialRectangle;connectable=0;fillColor=none;top=0;left=0;bottom=0;right=0;align=left;spacingLeft=6;overflow=hidden;" parent="ow447sVKTbxCxxCB1ptR-48" vertex="1">
          <mxGeometry x="90" width="210" height="30" as="geometry">
            <mxRectangle width="210" height="30" as="alternateBounds" />
          </mxGeometry>
        </mxCell>
        <mxCell id="NAudPtJrV0JuPCTQ65x1-4" value="comment_text" style="shape=table;startSize=30;container=1;collapsible=1;childLayout=tableLayout;fixedRows=1;rowLines=0;fontStyle=0;align=center;resizeLast=1;fillColor=#76608a;strokeColor=#432D57;fontColor=#ffffff;" parent="1" vertex="1">
          <mxGeometry x="620" y="840" width="290" height="90" as="geometry" />
        </mxCell>
        <mxCell id="NAudPtJrV0JuPCTQ65x1-5" value="" style="shape=partialRectangle;collapsible=0;dropTarget=0;pointerEvents=0;fillColor=none;top=0;left=0;bottom=1;right=0;points=[[0,0.5],[1,0.5]];portConstraint=eastwest;" parent="NAudPtJrV0JuPCTQ65x1-4" vertex="1">
          <mxGeometry y="30" width="290" height="30" as="geometry" />
        </mxCell>
        <mxCell id="NAudPtJrV0JuPCTQ65x1-6" value="id" style="shape=partialRectangle;connectable=0;fillColor=none;top=0;left=0;bottom=0;right=0;fontStyle=1;overflow=hidden;" parent="NAudPtJrV0JuPCTQ65x1-5" vertex="1">
          <mxGeometry width="106" height="30" as="geometry">
            <mxRectangle width="106" height="30" as="alternateBounds" />
          </mxGeometry>
        </mxCell>
        <mxCell id="NAudPtJrV0JuPCTQ65x1-7" value="int primary key auto_increment" style="shape=partialRectangle;connectable=0;fillColor=none;top=0;left=0;bottom=0;right=0;align=left;spacingLeft=6;fontStyle=5;overflow=hidden;" parent="NAudPtJrV0JuPCTQ65x1-5" vertex="1">
          <mxGeometry x="106" width="184" height="30" as="geometry">
            <mxRectangle width="184" height="30" as="alternateBounds" />
          </mxGeometry>
        </mxCell>
        <mxCell id="NAudPtJrV0JuPCTQ65x1-8" value="" style="shape=partialRectangle;collapsible=0;dropTarget=0;pointerEvents=0;fillColor=none;top=0;left=0;bottom=0;right=0;points=[[0,0.5],[1,0.5]];portConstraint=eastwest;" parent="NAudPtJrV0JuPCTQ65x1-4" vertex="1">
          <mxGeometry y="60" width="290" height="20" as="geometry" />
        </mxCell>
        <mxCell id="NAudPtJrV0JuPCTQ65x1-9" value="comment_content" style="shape=partialRectangle;connectable=0;fillColor=none;top=0;left=0;bottom=0;right=0;editable=1;overflow=hidden;" parent="NAudPtJrV0JuPCTQ65x1-8" vertex="1">
          <mxGeometry width="106" height="20" as="geometry">
            <mxRectangle width="106" height="20" as="alternateBounds" />
          </mxGeometry>
        </mxCell>
        <mxCell id="NAudPtJrV0JuPCTQ65x1-10" value="longtext" style="shape=partialRectangle;connectable=0;fillColor=none;top=0;left=0;bottom=0;right=0;align=left;spacingLeft=6;overflow=hidden;" parent="NAudPtJrV0JuPCTQ65x1-8" vertex="1">
          <mxGeometry x="106" width="184" height="20" as="geometry">
            <mxRectangle width="184" height="20" as="alternateBounds" />
          </mxGeometry>
        </mxCell>
        <mxCell id="NAudPtJrV0JuPCTQ65x1-42" value="" style="group" parent="1" vertex="1" connectable="0">
          <mxGeometry x="-750" y="385" width="320" height="240" as="geometry" />
        </mxCell>
        <mxCell id="NAudPtJrV0JuPCTQ65x1-28" value="user_blogpost" style="shape=table;startSize=30;container=1;collapsible=1;childLayout=tableLayout;fixedRows=1;rowLines=0;fontStyle=0;align=center;resizeLast=1;labelBackgroundColor=default;labelBorderColor=#000000;rounded=0;" parent="NAudPtJrV0JuPCTQ65x1-42" vertex="1">
          <mxGeometry width="320" height="240" as="geometry" />
        </mxCell>
        <mxCell id="NAudPtJrV0JuPCTQ65x1-29" value="" style="shape=partialRectangle;collapsible=0;dropTarget=0;pointerEvents=0;fillColor=none;top=0;left=0;bottom=1;right=0;points=[[0,0.5],[1,0.5]];portConstraint=eastwest;" parent="NAudPtJrV0JuPCTQ65x1-28" vertex="1">
          <mxGeometry y="30" width="320" height="30" as="geometry" />
        </mxCell>
        <mxCell id="NAudPtJrV0JuPCTQ65x1-30" value="id" style="shape=partialRectangle;connectable=0;fillColor=none;top=0;left=0;bottom=0;right=0;fontStyle=1;overflow=hidden;" parent="NAudPtJrV0JuPCTQ65x1-29" vertex="1">
          <mxGeometry width="80" height="30" as="geometry">
            <mxRectangle width="80" height="30" as="alternateBounds" />
          </mxGeometry>
        </mxCell>
        <mxCell id="NAudPtJrV0JuPCTQ65x1-31" value="int primary key auto_increment" style="shape=partialRectangle;connectable=0;fillColor=none;top=0;left=0;bottom=0;right=0;align=left;spacingLeft=6;fontStyle=5;overflow=hidden;" parent="NAudPtJrV0JuPCTQ65x1-29" vertex="1">
          <mxGeometry x="80" width="240" height="30" as="geometry">
            <mxRectangle width="240" height="30" as="alternateBounds" />
          </mxGeometry>
        </mxCell>
        <mxCell id="NAudPtJrV0JuPCTQ65x1-32" value="" style="shape=partialRectangle;collapsible=0;dropTarget=0;pointerEvents=0;fillColor=none;top=0;left=0;bottom=0;right=0;points=[[0,0.5],[1,0.5]];portConstraint=eastwest;" parent="NAudPtJrV0JuPCTQ65x1-28" vertex="1">
          <mxGeometry y="60" width="320" height="30" as="geometry" />
        </mxCell>
        <mxCell id="NAudPtJrV0JuPCTQ65x1-33" value="user_id" style="shape=partialRectangle;connectable=0;fillColor=none;top=0;left=0;bottom=0;right=0;editable=1;overflow=hidden;align=left;" parent="NAudPtJrV0JuPCTQ65x1-32" vertex="1">
          <mxGeometry width="80" height="30" as="geometry">
            <mxRectangle width="80" height="30" as="alternateBounds" />
          </mxGeometry>
        </mxCell>
        <mxCell id="NAudPtJrV0JuPCTQ65x1-34" value="int unsigned" style="shape=partialRectangle;connectable=0;fillColor=none;top=0;left=0;bottom=0;right=0;align=left;spacingLeft=6;overflow=hidden;" parent="NAudPtJrV0JuPCTQ65x1-32" vertex="1">
          <mxGeometry x="80" width="240" height="30" as="geometry">
            <mxRectangle width="240" height="30" as="alternateBounds" />
          </mxGeometry>
        </mxCell>
        <mxCell id="NAudPtJrV0JuPCTQ65x1-35" value="" style="shape=partialRectangle;collapsible=0;dropTarget=0;pointerEvents=0;fillColor=none;top=0;left=0;bottom=0;right=0;points=[[0,0.5],[1,0.5]];portConstraint=eastwest;" parent="NAudPtJrV0JuPCTQ65x1-28" vertex="1">
          <mxGeometry y="90" width="320" height="40" as="geometry" />
        </mxCell>
        <mxCell id="NAudPtJrV0JuPCTQ65x1-36" value="blog_id" style="shape=partialRectangle;connectable=0;fillColor=none;top=0;left=0;bottom=0;right=0;editable=1;overflow=hidden;align=left;" parent="NAudPtJrV0JuPCTQ65x1-35" vertex="1">
          <mxGeometry width="80" height="40" as="geometry">
            <mxRectangle width="80" height="40" as="alternateBounds" />
          </mxGeometry>
        </mxCell>
        <mxCell id="NAudPtJrV0JuPCTQ65x1-37" value="int unsigned" style="shape=partialRectangle;connectable=0;fillColor=none;top=0;left=0;bottom=0;right=0;align=left;spacingLeft=6;overflow=hidden;" parent="NAudPtJrV0JuPCTQ65x1-35" vertex="1">
          <mxGeometry x="80" width="240" height="40" as="geometry">
            <mxRectangle width="240" height="40" as="alternateBounds" />
          </mxGeometry>
        </mxCell>
        <mxCell id="NAudPtJrV0JuPCTQ65x1-40" value="FK user_id R user_data(id)" style="shape=partialRectangle;connectable=0;fillColor=none;top=0;left=0;bottom=0;right=0;align=left;spacingLeft=6;overflow=hidden;" parent="NAudPtJrV0JuPCTQ65x1-42" vertex="1">
          <mxGeometry x="79.99555555555555" y="137.14285714285714" width="284.44444444444446" height="45.71428571428571" as="geometry">
            <mxRectangle width="240" height="40" as="alternateBounds" />
          </mxGeometry>
        </mxCell>
        <mxCell id="NAudPtJrV0JuPCTQ65x1-41" value="FK blog_id R blog_text(id)" style="shape=partialRectangle;connectable=0;fillColor=none;top=0;left=0;bottom=0;right=0;align=left;spacingLeft=6;overflow=hidden;" parent="NAudPtJrV0JuPCTQ65x1-42" vertex="1">
          <mxGeometry x="79.99555555555555" y="182.85714285714283" width="284.44444444444446" height="45.71428571428571" as="geometry">
            <mxRectangle width="240" height="40" as="alternateBounds" />
          </mxGeometry>
        </mxCell>
        <mxCell id="NAudPtJrV0JuPCTQ65x1-136" value="" style="group" parent="1" vertex="1" connectable="0">
          <mxGeometry x="400" y="280" width="370" height="255" as="geometry" />
        </mxCell>
        <mxCell id="NAudPtJrV0JuPCTQ65x1-141" value="" style="group" parent="NAudPtJrV0JuPCTQ65x1-136" vertex="1" connectable="0">
          <mxGeometry width="370" height="254.99999999999997" as="geometry" />
        </mxCell>
        <mxCell id="NAudPtJrV0JuPCTQ65x1-122" value="user_comment" style="shape=table;startSize=30;container=1;collapsible=1;childLayout=tableLayout;fixedRows=1;rowLines=0;fontStyle=0;align=center;resizeLast=1;" parent="NAudPtJrV0JuPCTQ65x1-141" vertex="1">
          <mxGeometry width="370" height="254.99999999999997" as="geometry" />
        </mxCell>
        <mxCell id="NAudPtJrV0JuPCTQ65x1-123" value="" style="shape=partialRectangle;collapsible=0;dropTarget=0;pointerEvents=0;fillColor=none;top=0;left=0;bottom=1;right=0;points=[[0,0.5],[1,0.5]];portConstraint=eastwest;" parent="NAudPtJrV0JuPCTQ65x1-122" vertex="1">
          <mxGeometry y="30" width="370" height="30" as="geometry" />
        </mxCell>
        <mxCell id="NAudPtJrV0JuPCTQ65x1-124" value="id" style="shape=partialRectangle;connectable=0;fillColor=none;top=0;left=0;bottom=0;right=0;fontStyle=1;overflow=hidden;" parent="NAudPtJrV0JuPCTQ65x1-123" vertex="1">
          <mxGeometry width="130" height="30" as="geometry">
            <mxRectangle width="130" height="30" as="alternateBounds" />
          </mxGeometry>
        </mxCell>
        <mxCell id="NAudPtJrV0JuPCTQ65x1-125" value="int primary key auto_increment" style="shape=partialRectangle;connectable=0;fillColor=none;top=0;left=0;bottom=0;right=0;align=left;spacingLeft=6;fontStyle=5;overflow=hidden;" parent="NAudPtJrV0JuPCTQ65x1-123" vertex="1">
          <mxGeometry x="130" width="240" height="30" as="geometry">
            <mxRectangle width="240" height="30" as="alternateBounds" />
          </mxGeometry>
        </mxCell>
        <mxCell id="NAudPtJrV0JuPCTQ65x1-126" value="" style="shape=partialRectangle;collapsible=0;dropTarget=0;pointerEvents=0;fillColor=none;top=0;left=0;bottom=0;right=0;points=[[0,0.5],[1,0.5]];portConstraint=eastwest;" parent="NAudPtJrV0JuPCTQ65x1-122" vertex="1">
          <mxGeometry y="60" width="370" height="30" as="geometry" />
        </mxCell>
        <mxCell id="NAudPtJrV0JuPCTQ65x1-127" value="user_id" style="shape=partialRectangle;connectable=0;fillColor=none;top=0;left=0;bottom=0;right=0;editable=1;overflow=hidden;align=left;" parent="NAudPtJrV0JuPCTQ65x1-126" vertex="1">
          <mxGeometry width="130" height="30" as="geometry">
            <mxRectangle width="130" height="30" as="alternateBounds" />
          </mxGeometry>
        </mxCell>
        <mxCell id="NAudPtJrV0JuPCTQ65x1-128" value="int unsigned" style="shape=partialRectangle;connectable=0;fillColor=none;top=0;left=0;bottom=0;right=0;align=left;spacingLeft=6;overflow=hidden;" parent="NAudPtJrV0JuPCTQ65x1-126" vertex="1">
          <mxGeometry x="130" width="240" height="30" as="geometry">
            <mxRectangle width="240" height="30" as="alternateBounds" />
          </mxGeometry>
        </mxCell>
        <mxCell id="NAudPtJrV0JuPCTQ65x1-129" value="" style="shape=partialRectangle;collapsible=0;dropTarget=0;pointerEvents=0;fillColor=none;top=0;left=0;bottom=0;right=0;points=[[0,0.5],[1,0.5]];portConstraint=eastwest;" parent="NAudPtJrV0JuPCTQ65x1-122" vertex="1">
          <mxGeometry y="90" width="370" height="40" as="geometry" />
        </mxCell>
        <mxCell id="NAudPtJrV0JuPCTQ65x1-130" value="comment_id" style="shape=partialRectangle;connectable=0;fillColor=none;top=0;left=0;bottom=0;right=0;editable=1;overflow=hidden;align=left;" parent="NAudPtJrV0JuPCTQ65x1-129" vertex="1">
          <mxGeometry width="130" height="40" as="geometry">
            <mxRectangle width="130" height="40" as="alternateBounds" />
          </mxGeometry>
        </mxCell>
        <mxCell id="NAudPtJrV0JuPCTQ65x1-131" value="int unsigned" style="shape=partialRectangle;connectable=0;fillColor=none;top=0;left=0;bottom=0;right=0;align=left;spacingLeft=6;overflow=hidden;" parent="NAudPtJrV0JuPCTQ65x1-129" vertex="1">
          <mxGeometry x="130" width="240" height="40" as="geometry">
            <mxRectangle width="240" height="40" as="alternateBounds" />
          </mxGeometry>
        </mxCell>
        <mxCell id="NAudPtJrV0JuPCTQ65x1-134" value="FK user_id R user_data(id)" style="shape=partialRectangle;connectable=0;fillColor=none;top=0;left=0;bottom=0;right=0;align=left;spacingLeft=6;overflow=hidden;" parent="NAudPtJrV0JuPCTQ65x1-141" vertex="1">
          <mxGeometry x="130" y="136" width="240" height="40" as="geometry">
            <mxRectangle width="240" height="40" as="alternateBounds" />
          </mxGeometry>
        </mxCell>
        <mxCell id="NAudPtJrV0JuPCTQ65x1-135" value="FK comment_id R comment_text(id)" style="shape=partialRectangle;connectable=0;fillColor=none;top=0;left=0;bottom=0;right=0;align=left;spacingLeft=6;overflow=hidden;" parent="NAudPtJrV0JuPCTQ65x1-141" vertex="1">
          <mxGeometry x="130" y="186" width="240" height="40" as="geometry">
            <mxRectangle width="240" height="40" as="alternateBounds" />
          </mxGeometry>
        </mxCell>
        <mxCell id="NAudPtJrV0JuPCTQ65x1-142" value="" style="group" parent="1" vertex="1" connectable="0">
          <mxGeometry x="30" y="800" width="448.8925806451614" height="255" as="geometry" />
        </mxCell>
        <mxCell id="NAudPtJrV0JuPCTQ65x1-95" value="blog_comment" style="shape=table;startSize=30;container=1;collapsible=1;childLayout=tableLayout;fixedRows=1;rowLines=0;fontStyle=0;align=center;resizeLast=1;" parent="NAudPtJrV0JuPCTQ65x1-142" vertex="1">
          <mxGeometry width="370" height="254.99999999999997" as="geometry" />
        </mxCell>
        <mxCell id="NAudPtJrV0JuPCTQ65x1-96" value="" style="shape=partialRectangle;collapsible=0;dropTarget=0;pointerEvents=0;fillColor=none;top=0;left=0;bottom=1;right=0;points=[[0,0.5],[1,0.5]];portConstraint=eastwest;" parent="NAudPtJrV0JuPCTQ65x1-95" vertex="1">
          <mxGeometry y="30" width="370" height="30" as="geometry" />
        </mxCell>
        <mxCell id="NAudPtJrV0JuPCTQ65x1-97" value="id" style="shape=partialRectangle;connectable=0;fillColor=none;top=0;left=0;bottom=0;right=0;fontStyle=1;overflow=hidden;" parent="NAudPtJrV0JuPCTQ65x1-96" vertex="1">
          <mxGeometry width="130" height="30" as="geometry">
            <mxRectangle width="130" height="30" as="alternateBounds" />
          </mxGeometry>
        </mxCell>
        <mxCell id="NAudPtJrV0JuPCTQ65x1-98" value="int primary key auto_increment" style="shape=partialRectangle;connectable=0;fillColor=none;top=0;left=0;bottom=0;right=0;align=left;spacingLeft=6;fontStyle=5;overflow=hidden;" parent="NAudPtJrV0JuPCTQ65x1-96" vertex="1">
          <mxGeometry x="130" width="240" height="30" as="geometry">
            <mxRectangle width="240" height="30" as="alternateBounds" />
          </mxGeometry>
        </mxCell>
        <mxCell id="NAudPtJrV0JuPCTQ65x1-99" value="" style="shape=partialRectangle;collapsible=0;dropTarget=0;pointerEvents=0;fillColor=none;top=0;left=0;bottom=0;right=0;points=[[0,0.5],[1,0.5]];portConstraint=eastwest;" parent="NAudPtJrV0JuPCTQ65x1-95" vertex="1">
          <mxGeometry y="60" width="370" height="30" as="geometry" />
        </mxCell>
        <mxCell id="NAudPtJrV0JuPCTQ65x1-100" value="blog_id" style="shape=partialRectangle;connectable=0;fillColor=none;top=0;left=0;bottom=0;right=0;editable=1;overflow=hidden;align=left;" parent="NAudPtJrV0JuPCTQ65x1-99" vertex="1">
          <mxGeometry width="130" height="30" as="geometry">
            <mxRectangle width="130" height="30" as="alternateBounds" />
          </mxGeometry>
        </mxCell>
        <mxCell id="NAudPtJrV0JuPCTQ65x1-101" value="int unsigned" style="shape=partialRectangle;connectable=0;fillColor=none;top=0;left=0;bottom=0;right=0;align=left;spacingLeft=6;overflow=hidden;" parent="NAudPtJrV0JuPCTQ65x1-99" vertex="1">
          <mxGeometry x="130" width="240" height="30" as="geometry">
            <mxRectangle width="240" height="30" as="alternateBounds" />
          </mxGeometry>
        </mxCell>
        <mxCell id="NAudPtJrV0JuPCTQ65x1-102" value="" style="shape=partialRectangle;collapsible=0;dropTarget=0;pointerEvents=0;fillColor=none;top=0;left=0;bottom=0;right=0;points=[[0,0.5],[1,0.5]];portConstraint=eastwest;" parent="NAudPtJrV0JuPCTQ65x1-95" vertex="1">
          <mxGeometry y="90" width="370" height="40" as="geometry" />
        </mxCell>
        <mxCell id="NAudPtJrV0JuPCTQ65x1-103" value="comment_id" style="shape=partialRectangle;connectable=0;fillColor=none;top=0;left=0;bottom=0;right=0;editable=1;overflow=hidden;align=left;" parent="NAudPtJrV0JuPCTQ65x1-102" vertex="1">
          <mxGeometry width="130" height="40" as="geometry">
            <mxRectangle width="130" height="40" as="alternateBounds" />
          </mxGeometry>
        </mxCell>
        <mxCell id="NAudPtJrV0JuPCTQ65x1-104" value="int unsigned" style="shape=partialRectangle;connectable=0;fillColor=none;top=0;left=0;bottom=0;right=0;align=left;spacingLeft=6;overflow=hidden;" parent="NAudPtJrV0JuPCTQ65x1-102" vertex="1">
          <mxGeometry x="130" width="240" height="40" as="geometry">
            <mxRectangle width="240" height="40" as="alternateBounds" />
          </mxGeometry>
        </mxCell>
        <mxCell id="NAudPtJrV0JuPCTQ65x1-139" value="" style="group" parent="NAudPtJrV0JuPCTQ65x1-142" vertex="1" connectable="0">
          <mxGeometry x="120.00369175627247" y="132.85571428571427" width="328.8888888888889" height="97.14285714285714" as="geometry" />
        </mxCell>
        <mxCell id="NAudPtJrV0JuPCTQ65x1-105" value="FK blog_id R blog_text(id)" style="shape=partialRectangle;connectable=0;fillColor=none;top=0;left=0;bottom=0;right=0;align=left;spacingLeft=6;overflow=hidden;" parent="NAudPtJrV0JuPCTQ65x1-139" vertex="1">
          <mxGeometry width="328.8888888888889" height="48.57142857142857" as="geometry">
            <mxRectangle width="240" height="40" as="alternateBounds" />
          </mxGeometry>
        </mxCell>
        <mxCell id="NAudPtJrV0JuPCTQ65x1-106" value="FK comment_id R comment_text(id)" style="shape=partialRectangle;connectable=0;fillColor=none;top=0;left=0;bottom=0;right=0;align=left;spacingLeft=6;overflow=hidden;" parent="NAudPtJrV0JuPCTQ65x1-139" vertex="1">
          <mxGeometry y="48.571428571428555" width="328.8888888888889" height="48.57142857142857" as="geometry">
            <mxRectangle width="240" height="40" as="alternateBounds" />
          </mxGeometry>
        </mxCell>
        <mxCell id="NAudPtJrV0JuPCTQ65x1-132" value="" style="shape=partialRectangle;connectable=0;fillColor=none;top=0;left=0;bottom=0;right=0;align=left;spacingLeft=6;overflow=hidden;" parent="1" vertex="1">
          <mxGeometry x="-79.99630824372758" y="384.99571428571426" width="328.8888888888889" height="48.57142857142857" as="geometry">
            <mxRectangle width="240" height="40" as="alternateBounds" />
          </mxGeometry>
        </mxCell>
        <mxCell id="NAudPtJrV0JuPCTQ65x1-137" value="" style="group" parent="1" vertex="1" connectable="0">
          <mxGeometry x="-220" y="385" width="408.89258064516133" height="255" as="geometry" />
        </mxCell>
        <mxCell id="NAudPtJrV0JuPCTQ65x1-144" value="" style="group" parent="NAudPtJrV0JuPCTQ65x1-137" vertex="1" connectable="0">
          <mxGeometry width="408.89258064516133" height="254.99999999999997" as="geometry" />
        </mxCell>
        <mxCell id="NAudPtJrV0JuPCTQ65x1-44" value="blog_template" style="shape=table;startSize=30;container=1;collapsible=1;childLayout=tableLayout;fixedRows=1;rowLines=0;fontStyle=0;align=center;resizeLast=1;" parent="NAudPtJrV0JuPCTQ65x1-144" vertex="1">
          <mxGeometry width="370" height="254.99999999999997" as="geometry" />
        </mxCell>
        <mxCell id="NAudPtJrV0JuPCTQ65x1-45" value="" style="shape=partialRectangle;collapsible=0;dropTarget=0;pointerEvents=0;fillColor=none;top=0;left=0;bottom=1;right=0;points=[[0,0.5],[1,0.5]];portConstraint=eastwest;" parent="NAudPtJrV0JuPCTQ65x1-44" vertex="1">
          <mxGeometry y="30" width="370" height="30" as="geometry" />
        </mxCell>
        <mxCell id="NAudPtJrV0JuPCTQ65x1-46" value="id" style="shape=partialRectangle;connectable=0;fillColor=none;top=0;left=0;bottom=0;right=0;fontStyle=1;overflow=hidden;" parent="NAudPtJrV0JuPCTQ65x1-45" vertex="1">
          <mxGeometry width="130" height="30" as="geometry">
            <mxRectangle width="130" height="30" as="alternateBounds" />
          </mxGeometry>
        </mxCell>
        <mxCell id="NAudPtJrV0JuPCTQ65x1-47" value="int primary key auto_increment" style="shape=partialRectangle;connectable=0;fillColor=none;top=0;left=0;bottom=0;right=0;align=left;spacingLeft=6;fontStyle=5;overflow=hidden;" parent="NAudPtJrV0JuPCTQ65x1-45" vertex="1">
          <mxGeometry x="130" width="240" height="30" as="geometry">
            <mxRectangle width="240" height="30" as="alternateBounds" />
          </mxGeometry>
        </mxCell>
        <mxCell id="NAudPtJrV0JuPCTQ65x1-48" value="" style="shape=partialRectangle;collapsible=0;dropTarget=0;pointerEvents=0;fillColor=none;top=0;left=0;bottom=0;right=0;points=[[0,0.5],[1,0.5]];portConstraint=eastwest;" parent="NAudPtJrV0JuPCTQ65x1-44" vertex="1">
          <mxGeometry y="60" width="370" height="30" as="geometry" />
        </mxCell>
        <mxCell id="NAudPtJrV0JuPCTQ65x1-49" value="blog_id" style="shape=partialRectangle;connectable=0;fillColor=none;top=0;left=0;bottom=0;right=0;editable=1;overflow=hidden;align=left;" parent="NAudPtJrV0JuPCTQ65x1-48" vertex="1">
          <mxGeometry width="130" height="30" as="geometry">
            <mxRectangle width="130" height="30" as="alternateBounds" />
          </mxGeometry>
        </mxCell>
        <mxCell id="NAudPtJrV0JuPCTQ65x1-50" value="int unsigned" style="shape=partialRectangle;connectable=0;fillColor=none;top=0;left=0;bottom=0;right=0;align=left;spacingLeft=6;overflow=hidden;" parent="NAudPtJrV0JuPCTQ65x1-48" vertex="1">
          <mxGeometry x="130" width="240" height="30" as="geometry">
            <mxRectangle width="240" height="30" as="alternateBounds" />
          </mxGeometry>
        </mxCell>
        <mxCell id="NAudPtJrV0JuPCTQ65x1-51" value="" style="shape=partialRectangle;collapsible=0;dropTarget=0;pointerEvents=0;fillColor=none;top=0;left=0;bottom=0;right=0;points=[[0,0.5],[1,0.5]];portConstraint=eastwest;" parent="NAudPtJrV0JuPCTQ65x1-44" vertex="1">
          <mxGeometry y="90" width="370" height="40" as="geometry" />
        </mxCell>
        <mxCell id="NAudPtJrV0JuPCTQ65x1-52" value="template_name" style="shape=partialRectangle;connectable=0;fillColor=none;top=0;left=0;bottom=0;right=0;editable=1;overflow=hidden;align=left;" parent="NAudPtJrV0JuPCTQ65x1-51" vertex="1">
          <mxGeometry width="130" height="40" as="geometry">
            <mxRectangle width="130" height="40" as="alternateBounds" />
          </mxGeometry>
        </mxCell>
        <mxCell id="NAudPtJrV0JuPCTQ65x1-53" value="varchar(50)  not null" style="shape=partialRectangle;connectable=0;fillColor=none;top=0;left=0;bottom=0;right=0;align=left;spacingLeft=6;overflow=hidden;" parent="NAudPtJrV0JuPCTQ65x1-51" vertex="1">
          <mxGeometry x="130" width="240" height="40" as="geometry">
            <mxRectangle width="240" height="40" as="alternateBounds" />
          </mxGeometry>
        </mxCell>
        <mxCell id="NAudPtJrV0JuPCTQ65x1-54" value="FK blog_id R blog_text(id)" style="shape=partialRectangle;connectable=0;fillColor=none;top=0;left=0;bottom=0;right=0;align=left;spacingLeft=6;overflow=hidden;" parent="NAudPtJrV0JuPCTQ65x1-144" vertex="1">
          <mxGeometry x="80.00369175627242" y="139.99571428571426" width="328.8888888888889" height="48.57142857142857" as="geometry">
            <mxRectangle width="240" height="40" as="alternateBounds" />
          </mxGeometry>
        </mxCell>
        <mxCell id="NAudPtJrV0JuPCTQ65x1-55" value="FK template_name R template(name)" style="shape=partialRectangle;connectable=0;fillColor=none;top=0;left=0;bottom=0;right=0;align=left;spacingLeft=6;overflow=hidden;" parent="NAudPtJrV0JuPCTQ65x1-144" vertex="1">
          <mxGeometry x="80.00369175627242" y="188.5671428571428" width="328.8888888888889" height="48.57142857142857" as="geometry">
            <mxRectangle width="240" height="40" as="alternateBounds" />
          </mxGeometry>
        </mxCell>
        <mxCell id="NAudPtJrV0JuPCTQ65x1-155" style="edgeStyle=orthogonalEdgeStyle;rounded=0;orthogonalLoop=1;jettySize=auto;html=1;exitX=0;exitY=0.5;exitDx=0;exitDy=0;entryX=1;entryY=0.5;entryDx=0;entryDy=0;" parent="1" source="ow447sVKTbxCxxCB1ptR-3" target="NAudPtJrV0JuPCTQ65x1-32" edge="1">
          <mxGeometry relative="1" as="geometry" />
        </mxCell>
        <mxCell id="NAudPtJrV0JuPCTQ65x1-159" style="edgeStyle=orthogonalEdgeStyle;rounded=0;orthogonalLoop=1;jettySize=auto;html=1;exitX=0;exitY=0.5;exitDx=0;exitDy=0;" parent="1" source="ow447sVKTbxCxxCB1ptR-45" target="NAudPtJrV0JuPCTQ65x1-35" edge="1">
          <mxGeometry relative="1" as="geometry" />
        </mxCell>
        <mxCell id="NAudPtJrV0JuPCTQ65x1-160" style="edgeStyle=orthogonalEdgeStyle;rounded=0;orthogonalLoop=1;jettySize=auto;html=1;exitX=1;exitY=0.5;exitDx=0;exitDy=0;entryX=0;entryY=0.5;entryDx=0;entryDy=0;" parent="1" source="ow447sVKTbxCxxCB1ptR-45" target="NAudPtJrV0JuPCTQ65x1-48" edge="1">
          <mxGeometry relative="1" as="geometry" />
        </mxCell>
        <mxCell id="NAudPtJrV0JuPCTQ65x1-163" style="edgeStyle=orthogonalEdgeStyle;rounded=0;orthogonalLoop=1;jettySize=auto;html=1;exitX=0;exitY=0.5;exitDx=0;exitDy=0;entryX=1;entryY=0.5;entryDx=0;entryDy=0;" parent="1" source="ow447sVKTbxCxxCB1ptR-26" target="NAudPtJrV0JuPCTQ65x1-51" edge="1">
          <mxGeometry relative="1" as="geometry" />
        </mxCell>
        <mxCell id="NAudPtJrV0JuPCTQ65x1-164" style="edgeStyle=orthogonalEdgeStyle;rounded=0;orthogonalLoop=1;jettySize=auto;html=1;exitX=1;exitY=0.5;exitDx=0;exitDy=0;entryX=0;entryY=0.5;entryDx=0;entryDy=0;" parent="1" source="ow447sVKTbxCxxCB1ptR-6" target="NAudPtJrV0JuPCTQ65x1-126" edge="1">
          <mxGeometry relative="1" as="geometry" />
        </mxCell>
        <mxCell id="NAudPtJrV0JuPCTQ65x1-165" style="edgeStyle=orthogonalEdgeStyle;rounded=0;orthogonalLoop=1;jettySize=auto;html=1;exitX=0;exitY=0.5;exitDx=0;exitDy=0;" parent="1" source="NAudPtJrV0JuPCTQ65x1-5" target="NAudPtJrV0JuPCTQ65x1-129" edge="1">
          <mxGeometry relative="1" as="geometry" />
        </mxCell>
        <mxCell id="NAudPtJrV0JuPCTQ65x1-166" style="edgeStyle=orthogonalEdgeStyle;rounded=0;orthogonalLoop=1;jettySize=auto;html=1;exitX=0;exitY=0.5;exitDx=0;exitDy=0;entryX=1;entryY=0.5;entryDx=0;entryDy=0;" parent="1" source="NAudPtJrV0JuPCTQ65x1-5" target="NAudPtJrV0JuPCTQ65x1-102" edge="1">
          <mxGeometry relative="1" as="geometry" />
        </mxCell>
        <mxCell id="NAudPtJrV0JuPCTQ65x1-170" style="edgeStyle=orthogonalEdgeStyle;rounded=0;orthogonalLoop=1;jettySize=auto;html=1;exitX=1;exitY=0.5;exitDx=0;exitDy=0;entryX=0;entryY=0.5;entryDx=0;entryDy=0;" parent="1" source="ow447sVKTbxCxxCB1ptR-45" target="NAudPtJrV0JuPCTQ65x1-99" edge="1">
          <mxGeometry relative="1" as="geometry" />
        </mxCell>
      </root>
    </mxGraphModel>
  </diagram>
</mxfile>
